<mxfile host="65bd71144e">
    <diagram id="iqhXDl0r7TZWlrJUCzjc" name="PÃ¡gina-1">
        <mxGraphModel dx="482" dy="303" grid="1" gridSize="10" guides="1" tooltips="1" connect="1" arrows="1" fold="1" page="1" pageScale="1" pageWidth="827" pageHeight="1169" math="0" shadow="0">
            <root>
                <mxCell id="0"/>
                <mxCell id="1" parent="0"/>
                <mxCell id="3" style="edgeStyle=none;html=1;" edge="1" parent="1" source="2" target="4">
                    <mxGeometry relative="1" as="geometry">
                        <mxPoint x="390" y="100" as="targetPoint"/>
                    </mxGeometry>
                </mxCell>
                <mxCell id="2" value="INICIO" style="ellipse;whiteSpace=wrap;html=1;fillColor=#f8cecc;strokeColor=#b85450;" vertex="1" parent="1">
                    <mxGeometry x="330" width="120" height="60" as="geometry"/>
                </mxCell>
                <mxCell id="5" style="edgeStyle=none;html=1;" edge="1" parent="1" source="4" target="6">
                    <mxGeometry relative="1" as="geometry">
                        <mxPoint x="390" y="190" as="targetPoint"/>
                    </mxGeometry>
                </mxCell>
                <mxCell id="4" value="ing,deuda" style="shape=parallelogram;perimeter=parallelogramPerimeter;whiteSpace=wrap;html=1;fixedSize=1;fillColor=#dae8fc;strokeColor=#6c8ebf;" vertex="1" parent="1">
                    <mxGeometry x="330" y="100" width="120" height="50" as="geometry"/>
                </mxCell>
                <mxCell id="6" value="ing&amp;gt;945200" style="rhombus;whiteSpace=wrap;html=1;fillColor=#e1d5e7;strokeColor=#9673a6;" vertex="1" parent="1">
                    <mxGeometry x="350" y="190" width="80" height="80" as="geometry"/>
                </mxCell>
                <mxCell id="7" value="" style="endArrow=none;html=1;entryX=0;entryY=0.5;entryDx=0;entryDy=0;" edge="1" parent="1" target="6">
                    <mxGeometry width="50" height="50" relative="1" as="geometry">
                        <mxPoint x="160" y="320" as="sourcePoint"/>
                        <mxPoint x="290" y="240" as="targetPoint"/>
                        <Array as="points">
                            <mxPoint x="160" y="320"/>
                            <mxPoint x="160" y="230"/>
                        </Array>
                    </mxGeometry>
                </mxCell>
                <mxCell id="8" value="" style="endArrow=none;html=1;entryX=1;entryY=0.5;entryDx=0;entryDy=0;" edge="1" parent="1" target="6">
                    <mxGeometry width="50" height="50" relative="1" as="geometry">
                        <mxPoint x="600" y="320" as="sourcePoint"/>
                        <mxPoint x="420" y="290" as="targetPoint"/>
                        <Array as="points">
                            <mxPoint x="600" y="320"/>
                            <mxPoint x="600" y="230"/>
                        </Array>
                    </mxGeometry>
                </mxCell>
                <mxCell id="9" value="deuda==0" style="rhombus;whiteSpace=wrap;html=1;fillColor=#008a00;fontColor=#ffffff;strokeColor=#005700;" vertex="1" parent="1">
                    <mxGeometry x="560" y="320" width="80" height="80" as="geometry"/>
                </mxCell>
                <mxCell id="10" value="rta=prestamo no aprobado" style="rounded=0;whiteSpace=wrap;html=1;fillColor=#d80073;fontColor=#ffffff;strokeColor=#A50040;" vertex="1" parent="1">
                    <mxGeometry x="100" y="320" width="120" height="60" as="geometry"/>
                </mxCell>
                <mxCell id="11" value="" style="endArrow=none;html=1;entryX=0;entryY=0.5;entryDx=0;entryDy=0;" edge="1" parent="1" target="9">
                    <mxGeometry width="50" height="50" relative="1" as="geometry">
                        <mxPoint x="440" y="440" as="sourcePoint"/>
                        <mxPoint x="590" y="410" as="targetPoint"/>
                        <Array as="points">
                            <mxPoint x="440" y="440"/>
                            <mxPoint x="440" y="360"/>
                        </Array>
                    </mxGeometry>
                </mxCell>
                <mxCell id="12" value="" style="endArrow=none;html=1;entryX=1;entryY=0.5;entryDx=0;entryDy=0;" edge="1" parent="1" target="9">
                    <mxGeometry width="50" height="50" relative="1" as="geometry">
                        <mxPoint x="760" y="440" as="sourcePoint"/>
                        <mxPoint x="590" y="410" as="targetPoint"/>
                        <Array as="points">
                            <mxPoint x="760" y="440"/>
                            <mxPoint x="760" y="360"/>
                        </Array>
                    </mxGeometry>
                </mxCell>
                <mxCell id="13" value="rta=prestamo no aprovado" style="rounded=0;whiteSpace=wrap;html=1;fillColor=#d80073;fontColor=#ffffff;strokeColor=#A50040;" vertex="1" parent="1">
                    <mxGeometry x="380" y="440" width="120" height="60" as="geometry"/>
                </mxCell>
                <mxCell id="14" value="rta=prestamo aprovado" style="rounded=0;whiteSpace=wrap;html=1;fillColor=#d80073;fontColor=#ffffff;strokeColor=#A50040;" vertex="1" parent="1">
                    <mxGeometry x="700" y="440" width="120" height="60" as="geometry"/>
                </mxCell>
                <mxCell id="15" value="" style="endArrow=none;html=1;entryX=0.5;entryY=1;entryDx=0;entryDy=0;" edge="1" parent="1" target="13">
                    <mxGeometry width="50" height="50" relative="1" as="geometry">
                        <mxPoint x="760" y="600" as="sourcePoint"/>
                        <mxPoint x="640" y="550" as="targetPoint"/>
                        <Array as="points">
                            <mxPoint x="680" y="600"/>
                            <mxPoint x="440" y="600"/>
                        </Array>
                    </mxGeometry>
                </mxCell>
                <mxCell id="16" value="" style="endArrow=none;html=1;entryX=0.5;entryY=1;entryDx=0;entryDy=0;" edge="1" parent="1" target="14">
                    <mxGeometry width="50" height="50" relative="1" as="geometry">
                        <mxPoint x="760" y="600" as="sourcePoint"/>
                        <mxPoint x="640" y="550" as="targetPoint"/>
                    </mxGeometry>
                </mxCell>
                <mxCell id="17" value="" style="endArrow=none;html=1;" edge="1" parent="1">
                    <mxGeometry width="50" height="50" relative="1" as="geometry">
                        <mxPoint x="590" y="720" as="sourcePoint"/>
                        <mxPoint x="600" y="600" as="targetPoint"/>
                        <Array as="points">
                            <mxPoint x="150" y="720"/>
                            <mxPoint x="600" y="720"/>
                        </Array>
                    </mxGeometry>
                </mxCell>
                <mxCell id="18" value="" style="endArrow=none;html=1;entryX=0.5;entryY=1;entryDx=0;entryDy=0;" edge="1" parent="1" target="10">
                    <mxGeometry width="50" height="50" relative="1" as="geometry">
                        <mxPoint x="160" y="720" as="sourcePoint"/>
                        <mxPoint x="190" y="490" as="targetPoint"/>
                    </mxGeometry>
                </mxCell>
                <mxCell id="22" style="edgeStyle=none;html=1;" edge="1" parent="1" source="20">
                    <mxGeometry relative="1" as="geometry">
                        <mxPoint x="380" y="860" as="targetPoint"/>
                    </mxGeometry>
                </mxCell>
                <mxCell id="20" value="rta" style="shape=document;whiteSpace=wrap;html=1;boundedLbl=1;fillColor=#1ba1e2;fontColor=#ffffff;strokeColor=#006EAF;" vertex="1" parent="1">
                    <mxGeometry x="320" y="770" width="120" height="60" as="geometry"/>
                </mxCell>
                <mxCell id="21" value="" style="endArrow=none;html=1;" edge="1" parent="1">
                    <mxGeometry width="50" height="50" relative="1" as="geometry">
                        <mxPoint x="380" y="770" as="sourcePoint"/>
                        <mxPoint x="380" y="720" as="targetPoint"/>
                    </mxGeometry>
                </mxCell>
                <mxCell id="23" value="FIN" style="ellipse;whiteSpace=wrap;html=1;fillColor=#f8cecc;strokeColor=#b85450;" vertex="1" parent="1">
                    <mxGeometry x="320" y="860" width="120" height="60" as="geometry"/>
                </mxCell>
                <mxCell id="24" value="true" style="text;html=1;strokeColor=none;fillColor=none;align=center;verticalAlign=middle;whiteSpace=wrap;rounded=0;" vertex="1" parent="1">
                    <mxGeometry x="480" y="200" width="60" height="30" as="geometry"/>
                </mxCell>
                <mxCell id="25" value="false" style="text;html=1;strokeColor=none;fillColor=none;align=center;verticalAlign=middle;whiteSpace=wrap;rounded=0;" vertex="1" parent="1">
                    <mxGeometry x="210" y="200" width="60" height="30" as="geometry"/>
                </mxCell>
                <mxCell id="26" value="false" style="text;html=1;strokeColor=none;fillColor=none;align=center;verticalAlign=middle;whiteSpace=wrap;rounded=0;" vertex="1" parent="1">
                    <mxGeometry x="480" y="335" width="60" height="30" as="geometry"/>
                </mxCell>
                <mxCell id="27" value="true" style="text;html=1;strokeColor=none;fillColor=none;align=center;verticalAlign=middle;whiteSpace=wrap;rounded=0;" vertex="1" parent="1">
                    <mxGeometry x="670" y="335" width="60" height="30" as="geometry"/>
                </mxCell>
            </root>
        </mxGraphModel>
    </diagram>
</mxfile>